<svg width="1440" height="598" viewBox="0 0 1440 598" fill="none" xmlns="http://www.w3.org/2000/svg">
<g clip-path="url(#clip0_3812_16243)">
<rect y="0.00195312" width="1440" height="448" fill="#00BA88"/>
<path d="M542.148 597.609L367.073 597.609C270.381 597.609 191.997 519.225 191.997 422.533L191.997 -452.882L542.148 -452.882L542.148 597.609Z" fill="#008FBA"/>
<path d="M1248.61 74.3968C1248.61 171.089 1170.23 249.473 1073.53 249.473L898.458 249.473L898.458 -458.998L1248.61 -458.998L1248.61 74.3968Z" fill="#008FBA"/>
<path d="M724.389 249.478C820.522 249.478 898.453 327.409 898.453 423.541L898.453 597.605L366.07 597.605C269.937 597.605 192.006 519.674 192.006 423.541L192.006 249.478L724.389 249.478Z" fill="#008FBA"/>
<path d="M898.469 597.604V249.476L1074.56 249.476C1170.69 249.476 1248.62 327.407 1248.62 423.54V597.603L898.469 597.604Z" fill="#0032BA"/>
</g>
<defs>
<clipPath id="clip0_3812_16243">
<rect width="1440" height="598" fill="white" transform="translate(0 0.00195312)"/>
</clipPath>
</defs>
</svg>
